<mxfile host="Electron" agent="Mozilla/5.0 (Windows NT 10.0; Win64; x64) AppleWebKit/537.36 (KHTML, like Gecko) draw.io/26.0.16 Chrome/132.0.6834.196 Electron/34.2.0 Safari/537.36" version="26.0.16">
  <diagram name="Page-1" id="2m4wh7v3PmHXvsgqi0Bo">
    <mxGraphModel dx="859" dy="364" grid="1" gridSize="10" guides="1" tooltips="1" connect="1" arrows="1" fold="1" page="1" pageScale="1" pageWidth="827" pageHeight="1169" math="0" shadow="0">
      <root>
        <mxCell id="0" />
        <mxCell id="1" parent="0" />
        <mxCell id="oQlI8IUR9d3YUx72Ssix-1" value="1) Modelo Conceptual" style="text;html=1;align=left;verticalAlign=middle;whiteSpace=wrap;rounded=0;fontSize=24;" parent="1" vertex="1">
          <mxGeometry x="40" y="50" width="320" height="30" as="geometry" />
        </mxCell>
        <mxCell id="oQlI8IUR9d3YUx72Ssix-2" value="Sucursal" style="rounded=0;whiteSpace=wrap;html=1;" parent="1" vertex="1">
          <mxGeometry x="200" y="280" width="120" height="40" as="geometry" />
        </mxCell>
        <mxCell id="oQlI8IUR9d3YUx72Ssix-3" value="domicilio" style="ellipse;whiteSpace=wrap;html=1;" parent="1" vertex="1">
          <mxGeometry x="100" y="200" width="120" height="40" as="geometry" />
        </mxCell>
        <mxCell id="oQlI8IUR9d3YUx72Ssix-8" value="teléfono" style="ellipse;whiteSpace=wrap;html=1;" parent="1" vertex="1">
          <mxGeometry x="270" y="200" width="120" height="40" as="geometry" />
        </mxCell>
        <mxCell id="oQlI8IUR9d3YUx72Ssix-9" value="&lt;u&gt;código&lt;/u&gt;" style="ellipse;whiteSpace=wrap;html=1;" parent="1" vertex="1">
          <mxGeometry x="90" y="370" width="120" height="40" as="geometry" />
        </mxCell>
        <mxCell id="oQlI8IUR9d3YUx72Ssix-10" value="" style="endArrow=none;html=1;rounded=0;exitX=0.5;exitY=1;exitDx=0;exitDy=0;entryX=0.5;entryY=0;entryDx=0;entryDy=0;" parent="1" source="oQlI8IUR9d3YUx72Ssix-3" target="oQlI8IUR9d3YUx72Ssix-2" edge="1">
          <mxGeometry width="50" height="50" relative="1" as="geometry">
            <mxPoint x="420" y="330" as="sourcePoint" />
            <mxPoint x="470" y="280" as="targetPoint" />
          </mxGeometry>
        </mxCell>
        <mxCell id="oQlI8IUR9d3YUx72Ssix-11" value="" style="endArrow=none;html=1;rounded=0;entryX=0.567;entryY=1.017;entryDx=0;entryDy=0;entryPerimeter=0;exitX=0.699;exitY=-0.019;exitDx=0;exitDy=0;exitPerimeter=0;" parent="1" source="oQlI8IUR9d3YUx72Ssix-2" target="oQlI8IUR9d3YUx72Ssix-8" edge="1">
          <mxGeometry width="50" height="50" relative="1" as="geometry">
            <mxPoint x="420" y="330" as="sourcePoint" />
            <mxPoint x="470" y="280" as="targetPoint" />
          </mxGeometry>
        </mxCell>
        <mxCell id="oQlI8IUR9d3YUx72Ssix-12" value="" style="endArrow=none;html=1;rounded=0;exitX=0.561;exitY=0.017;exitDx=0;exitDy=0;exitPerimeter=0;entryX=0.178;entryY=1.017;entryDx=0;entryDy=0;entryPerimeter=0;" parent="1" source="oQlI8IUR9d3YUx72Ssix-9" target="oQlI8IUR9d3YUx72Ssix-2" edge="1">
          <mxGeometry width="50" height="50" relative="1" as="geometry">
            <mxPoint x="420" y="330" as="sourcePoint" />
            <mxPoint x="470" y="280" as="targetPoint" />
          </mxGeometry>
        </mxCell>
        <mxCell id="oQlI8IUR9d3YUx72Ssix-13" value="Empleado" style="rounded=0;whiteSpace=wrap;html=1;" parent="1" vertex="1">
          <mxGeometry x="600" y="280" width="120" height="40" as="geometry" />
        </mxCell>
        <mxCell id="oQlI8IUR9d3YUx72Ssix-14" value="nombre" style="ellipse;whiteSpace=wrap;html=1;" parent="1" vertex="1">
          <mxGeometry x="690" y="200" width="120" height="40" as="geometry" />
        </mxCell>
        <mxCell id="oQlI8IUR9d3YUx72Ssix-15" value="apellido" style="ellipse;whiteSpace=wrap;html=1;" parent="1" vertex="1">
          <mxGeometry x="780" y="280" width="120" height="40" as="geometry" />
        </mxCell>
        <mxCell id="oQlI8IUR9d3YUx72Ssix-16" value="&lt;u&gt;rfc&lt;/u&gt;" style="ellipse;whiteSpace=wrap;html=1;" parent="1" vertex="1">
          <mxGeometry x="470" y="360" width="120" height="40" as="geometry" />
        </mxCell>
        <mxCell id="oQlI8IUR9d3YUx72Ssix-17" value="teléfono" style="ellipse;whiteSpace=wrap;html=1;" parent="1" vertex="1">
          <mxGeometry x="520" y="200" width="120" height="40" as="geometry" />
        </mxCell>
        <mxCell id="oQlI8IUR9d3YUx72Ssix-18" value="" style="endArrow=none;html=1;rounded=0;entryX=0.5;entryY=1;entryDx=0;entryDy=0;exitX=0.25;exitY=0;exitDx=0;exitDy=0;" parent="1" source="oQlI8IUR9d3YUx72Ssix-13" target="oQlI8IUR9d3YUx72Ssix-17" edge="1">
          <mxGeometry width="50" height="50" relative="1" as="geometry">
            <mxPoint x="450" y="330" as="sourcePoint" />
            <mxPoint x="500" y="280" as="targetPoint" />
          </mxGeometry>
        </mxCell>
        <mxCell id="oQlI8IUR9d3YUx72Ssix-19" value="" style="endArrow=none;html=1;rounded=0;entryX=0.5;entryY=1;entryDx=0;entryDy=0;exitX=0.6;exitY=0.036;exitDx=0;exitDy=0;exitPerimeter=0;" parent="1" source="oQlI8IUR9d3YUx72Ssix-13" target="oQlI8IUR9d3YUx72Ssix-14" edge="1">
          <mxGeometry width="50" height="50" relative="1" as="geometry">
            <mxPoint x="450" y="330" as="sourcePoint" />
            <mxPoint x="500" y="280" as="targetPoint" />
          </mxGeometry>
        </mxCell>
        <mxCell id="oQlI8IUR9d3YUx72Ssix-20" value="" style="endArrow=none;html=1;rounded=0;exitX=0.5;exitY=0;exitDx=0;exitDy=0;entryX=0.428;entryY=1.017;entryDx=0;entryDy=0;entryPerimeter=0;" parent="1" source="oQlI8IUR9d3YUx72Ssix-16" target="oQlI8IUR9d3YUx72Ssix-13" edge="1">
          <mxGeometry width="50" height="50" relative="1" as="geometry">
            <mxPoint x="450" y="330" as="sourcePoint" />
            <mxPoint x="500" y="280" as="targetPoint" />
          </mxGeometry>
        </mxCell>
        <mxCell id="oQlI8IUR9d3YUx72Ssix-21" value="" style="endArrow=none;html=1;rounded=0;exitX=0;exitY=0.5;exitDx=0;exitDy=0;entryX=1;entryY=0.5;entryDx=0;entryDy=0;" parent="1" source="oQlI8IUR9d3YUx72Ssix-15" target="oQlI8IUR9d3YUx72Ssix-13" edge="1">
          <mxGeometry width="50" height="50" relative="1" as="geometry">
            <mxPoint x="450" y="330" as="sourcePoint" />
            <mxPoint x="500" y="280" as="targetPoint" />
          </mxGeometry>
        </mxCell>
        <mxCell id="oQlI8IUR9d3YUx72Ssix-22" value="Modelo Entidad Relación" style="text;html=1;align=left;verticalAlign=middle;whiteSpace=wrap;rounded=0;" parent="1" vertex="1">
          <mxGeometry x="520" y="50" width="190" height="30" as="geometry" />
        </mxCell>
        <mxCell id="oQlI8IUR9d3YUx72Ssix-24" style="edgeStyle=orthogonalEdgeStyle;rounded=0;orthogonalLoop=1;jettySize=auto;html=1;entryX=1;entryY=0.5;entryDx=0;entryDy=0;endArrow=none;startFill=0;" parent="1" source="oQlI8IUR9d3YUx72Ssix-23" target="oQlI8IUR9d3YUx72Ssix-2" edge="1">
          <mxGeometry relative="1" as="geometry" />
        </mxCell>
        <mxCell id="oQlI8IUR9d3YUx72Ssix-25" style="edgeStyle=orthogonalEdgeStyle;rounded=0;orthogonalLoop=1;jettySize=auto;html=1;entryX=0;entryY=0.5;entryDx=0;entryDy=0;endArrow=none;startFill=0;" parent="1" source="oQlI8IUR9d3YUx72Ssix-23" target="oQlI8IUR9d3YUx72Ssix-13" edge="1">
          <mxGeometry relative="1" as="geometry" />
        </mxCell>
        <mxCell id="oQlI8IUR9d3YUx72Ssix-23" value="tiene" style="rhombus;whiteSpace=wrap;html=1;" parent="1" vertex="1">
          <mxGeometry x="400" y="280" width="120" height="40" as="geometry" />
        </mxCell>
        <mxCell id="Jr2bOZ-NmzqemenztBpP-1" value="1" style="text;html=1;align=center;verticalAlign=middle;whiteSpace=wrap;rounded=0;" parent="1" vertex="1">
          <mxGeometry x="390" y="280" width="20" height="20" as="geometry" />
        </mxCell>
        <mxCell id="Jr2bOZ-NmzqemenztBpP-2" value="n" style="text;html=1;align=center;verticalAlign=middle;whiteSpace=wrap;rounded=0;" parent="1" vertex="1">
          <mxGeometry x="510" y="280" width="20" height="20" as="geometry" />
        </mxCell>
        <mxCell id="Jr2bOZ-NmzqemenztBpP-5" value="cod_suc" style="ellipse;whiteSpace=wrap;html=1;" parent="1" vertex="1">
          <mxGeometry x="780" y="360" width="120" height="40" as="geometry" />
        </mxCell>
        <mxCell id="Jr2bOZ-NmzqemenztBpP-8" value="" style="endArrow=none;html=1;rounded=0;entryX=1;entryY=0.75;entryDx=0;entryDy=0;exitX=0.5;exitY=0;exitDx=0;exitDy=0;" parent="1" source="Jr2bOZ-NmzqemenztBpP-5" target="oQlI8IUR9d3YUx72Ssix-13" edge="1">
          <mxGeometry width="50" height="50" relative="1" as="geometry">
            <mxPoint x="650" y="440" as="sourcePoint" />
            <mxPoint x="700" y="390" as="targetPoint" />
          </mxGeometry>
        </mxCell>
        <mxCell id="Jr2bOZ-NmzqemenztBpP-9" value="E. Fuertes (Dependen de ella)" style="text;html=1;align=center;verticalAlign=middle;whiteSpace=wrap;rounded=0;" parent="1" vertex="1">
          <mxGeometry x="200" y="110" width="80" height="60" as="geometry" />
        </mxCell>
        <mxCell id="Jr2bOZ-NmzqemenztBpP-10" value="E. Débiles (Tienen dependencias)" style="text;html=1;align=center;verticalAlign=middle;whiteSpace=wrap;rounded=0;" parent="1" vertex="1">
          <mxGeometry x="630" y="110" width="80" height="60" as="geometry" />
        </mxCell>
        <mxCell id="sLKigQfJ16g1k35YhlFk-1" value="fec. nac." style="ellipse;whiteSpace=wrap;html=1;" vertex="1" parent="1">
          <mxGeometry x="580" y="440" width="120" height="40" as="geometry" />
        </mxCell>
        <mxCell id="sLKigQfJ16g1k35YhlFk-2" value="fec. ingreso" style="ellipse;whiteSpace=wrap;html=1;" vertex="1" parent="1">
          <mxGeometry x="720" y="440" width="120" height="40" as="geometry" />
        </mxCell>
        <mxCell id="sLKigQfJ16g1k35YhlFk-3" value="" style="endArrow=none;html=1;rounded=0;entryX=0.5;entryY=1;entryDx=0;entryDy=0;" edge="1" parent="1" source="sLKigQfJ16g1k35YhlFk-1" target="oQlI8IUR9d3YUx72Ssix-13">
          <mxGeometry width="50" height="50" relative="1" as="geometry">
            <mxPoint x="590" y="370" as="sourcePoint" />
            <mxPoint x="661" y="331" as="targetPoint" />
          </mxGeometry>
        </mxCell>
        <mxCell id="sLKigQfJ16g1k35YhlFk-4" value="" style="endArrow=none;html=1;rounded=0;entryX=0.811;entryY=1.009;entryDx=0;entryDy=0;entryPerimeter=0;exitX=0.206;exitY=0.124;exitDx=0;exitDy=0;exitPerimeter=0;" edge="1" parent="1" source="sLKigQfJ16g1k35YhlFk-2" target="oQlI8IUR9d3YUx72Ssix-13">
          <mxGeometry width="50" height="50" relative="1" as="geometry">
            <mxPoint x="670" y="450" as="sourcePoint" />
            <mxPoint x="704" y="330" as="targetPoint" />
          </mxGeometry>
        </mxCell>
      </root>
    </mxGraphModel>
  </diagram>
</mxfile>
